{"title":"Somethiing Borrowed *2011* [TS.XviD-miguel] [ENG]","uid":6535602,"size":1476480040,"categoryP":"video","categoryS":"movies","magnet":"?xt=urn:btih:802622f6133c85ef6d7d15552506bb22a98963ad&amp;dn=Somethiing+Borrowed+%2A2011%2A+%5BTS.XviD-miguel%5D+%5BENG%5D&amp;tr=udp%3A%2F%2Ftracker.openbittorrent.com%3A80&amp;tr=udp%3A%2F%2Fopen.demonii.com%3A1337&amp;tr=udp%3A%2F%2Ftracker.coppersurfer.tk%3A6969&amp;tr=udp%3A%2F%2Fexodus.desync.com%3A6969","seeders":0,"leechers":1,"uploader":"miguel1983","files":-1,"time":1310499057,"description":" &lt;a href=&quot;http://img402.imageshack.us/img402/1107/something2bborrowed2bpo.jpg&quot; rel=&quot;nofollow&quot; target=&quot;_NEW&quot;&gt;http://img402.imageshack.us/img402/1107/something2bborrowed2bpo.jpg&lt;/a&gt;\n\nCountry.......: USA\nGenre.........: Comedy, Romance, Drama\nDate release..: 05.05.2011 [World]\nDirector......: Luke Greenfield\nWriters.......: Jennie Snyder, Emily Giffin\nDuration......: 108 min.\nMore..........: http://www.imdb.com/title/tt0491152\nTrailer.......: http://www.imdb.com/video/imdb/vi45194521\nTrailer.......:\n\nPilot :\nFriendships are tested and secrets come to the surface when terminally single Rachel falls for Dex, her best friend Darcy's fiancÃƒÂ©. \n\nCats :\nGinnifer Goodwin   \t ...  \tRachel\nKate Hudson \t... \tDarcy\nColin Egglesfield \t... \tDex\nJohn Krasinski \t... \tEthan\nSteve Howey \t... \tMarcus\nAshley Williams \t... \tClaire\nGeoff Pierson \t... \tDexter Thaler Sr.\nJill Eikenberry \t... \tBridget Thaler\nJonathan Epstein \t... \tProfessor Zigman\nLeia Thompson \t... \tBridal Consultant\nSarah Baldwin \t... \tJune\nMark La Mura \t... \tMarcuss Dad\nLindsay Ryan \t... \tSalesgirl\nKirsten Day \t... \tPretty Brunette\nChristopher Peuler \t... \tHusband \n\nData Technical :\n!!! SAMPLE !!!\nAudio.....: English\nSubtitles.: None\nFormat                           : AVI\nFormat/Info                      : Audio Video Interleave\nFile size                        : 1.37 GiB\nDuration                         : 1h 47mn\nOverall bit rate                 : 1 823 Kbps\nWriting library                  : VirtualDub build 32706/release\nVideo\nID                               : 0\nFormat                           : MPEG-4 Visual\nFormat profile                   : Advanced Simple@L5\nFormat settings, BVOP            : Yes\nFormat settings, QPel            : No\nFormat settings, GMC             : No warppoints\nFormat settings, Matrix          : Default (MPEG)\nMuxing mode                      : Packed bitstream\nCodec ID                         : XVID\nCodec ID/Hint                    : XviD\nDuration                         : 1h 47mn\nBit rate                         : 1 685 Kbps\nWidth                            : 720 pixels\nHeight                           : 384 pixels\nDisplay aspect ratio             : 1.875\nFrame rate                       : 25.000 fps\nColor space                      : YUV\nChroma subsampling               : 4:2:0\nBit depth                        : 8 bits\nScan type                        : Progressive\nBits/(Pixel*Frame)               : 0.244\nStream size                      : 1.27 GiB (92%)\nWriting library                  : XviD 61\nAudio\nID                               : 1\nFormat                           : MPEG Audio\nFormat version                   : Version 1\nFormat profile                   : Layer 3\nCodec ID                         : 55\nCodec ID/Hint                    : MP3\nDuration                         : 1h 47mn\nBit rate mode                    : Constant\nBit rate                         : 128 Kbps\nChannel(s)                       : 2 channels\nSampling rate                    : 44.1 KHz\nStream size                      : 98.7 MiB (7%)\nAlignment                        : Split accross interleaves\nInterleave, duration             : 40 ms (1.00 video frame)\nInterleave, preload duration     : 500 ms\n\nScreen : &lt;a href=&quot;\nhttp://img96.imageshack.us/img96/9175/somethiingborrowed2011s.jpg&quot; rel=&quot;nofollow&quot; target=&quot;_NEW&quot;&gt;\nhttp://img96.imageshack.us/img96/9175/somethiingborrowed2011s.jpg&lt;/a&gt; &lt;a href=&quot;\nhttp://img232.imageshack.us/img232/9175/somethiingborrowed2011s.jpg&quot; rel=&quot;nofollow&quot; target=&quot;_NEW&quot;&gt;\nhttp://img232.imageshack.us/img232/9175/somethiingborrowed2011s.jpg&lt;/a&gt; &lt;a href=&quot;\nhttp://img706.imageshack.us/img706/9175/somethiingborrowed2011s.jpg&quot; rel=&quot;nofollow&quot; target=&quot;_NEW&quot;&gt;\nhttp://img706.imageshack.us/img706/9175/somethiingborrowed2011s.jpg&lt;/a&gt; &lt;a href=&quot;\nhttp://img685.imageshack.us/img685/9175/somethiingborrowed2011s.jpg&quot; rel=&quot;nofollow&quot; target=&quot;_NEW&quot;&gt;\nhttp://img685.imageshack.us/img685/9175/somethiingborrowed2011s.jpg&lt;/a&gt; &lt;a href=&quot;\nhttp://img339.imageshack.us/img339/9175/somethiingborrowed2011s.jpg&quot; rel=&quot;nofollow&quot; target=&quot;_NEW&quot;&gt;\nhttp://img339.imageshack.us/img339/9175/somethiingborrowed2011s.jpg&lt;/a&gt;","torrent":{"xt":"urn:btih:802622f6133c85ef6d7d15552506bb22a98963ad","amp;dn":"Somethiing+Borrowed+%2A2011%2A+%5BTS.XviD-miguel%5D+%5BENG%5D","amp;tr":["udp%3A%2F%2Ftracker.openbittorrent.com%3A80","udp%3A%2F%2Fopen.demonii.com%3A1337","udp%3A%2F%2Ftracker.coppersurfer.tk%3A6969","udp%3A%2F%2Fexodus.desync.com%3A6969"],"infoHash":"802622f6133c85ef6d7d15552506bb22a98963ad","infoHashBuffer":{"type":"Buffer","data":[128,38,34,246,19,60,133,239,109,125,21,85,37,6,187,34,169,137,99,173]},"announce":[],"urlList":[]}}